Coordinates
version=1
nRows=16
nColumns=42
inDegrees=yes

Units are S.I. units (second, meters, Newtons, ...)
If the header above contains a line with 'inDegrees', this indicates whether rotational values are in degrees (yes) or radians (no).

endheader
time	pelvis_tilt	pelvis_list	pelvis_rotation	pelvis_tx	pelvis_ty	pelvis_tz	hip_flexion_r	hip_adduction_r	hip_rotation_r	knee_angle_r	knee_adduction_r	knee_angle_r_beta	ankle_angle_r	subtalar_angle_r	mtp_angle_r	hip_flexion_l	hip_adduction_l	hip_rotation_l	knee_angle_l	knee_adduction_l	knee_angle_l_beta	ankle_angle_l	subtalar_angle_l	mtp_angle_l	lumbar_extension	lumbar_bending	lumbar_rotation	arm_flex_r	arm_add_r	arm_rot_r	elbow_flex_r	pro_sup_r	wrist_flex_r	wrist_dev_r	arm_flex_l	arm_add_l	arm_rot_l	elbow_flex_l	pro_sup_l	wrist_flex_l	wrist_dev_l
      0.38500000	    -24.57729307	     -2.85679196	     -6.84103195	     -0.28300057	      0.87141794	      0.39544806	     39.31521230	      1.54728501	     -0.27551355	     45.87127573	      5.85288448	      0.80060479	     25.57739051	      1.63819869	     -0.00000000	     39.10544968	    -15.42598094	     -4.88454750	     79.63744194	      4.70865390	      1.38993557	      9.55400657	    -12.39613239	    -10.00000000	    -10.86568400	     10.16252005	      0.96014639	     -3.77747164	    -12.18714251	    -24.49296912	     78.72485913	     90.00000001	      0.00000000	      0.00000000	    -38.91203740	    -62.73460735	    -44.54198185	     35.18749517	     90.00000001	      0.00000000	      0.00000000
      0.39000000	    -24.86375752	     -3.35706078	     -6.57168061	     -0.27611175	      0.87432045	      0.39565049	     38.02280121	      1.99065874	     -0.71424968	     43.81531452	      5.85288448	      0.76472150	     25.24779437	      0.90384371	     -0.00000000	     40.55429542	    -15.56772341	     -3.75281441	     79.34666823	      4.70865390	      1.38486061	      9.38859965	    -12.87428115	    -10.00000000	    -10.67372327	     10.62597335	      0.93879315	     -3.73296943	    -12.18706191	    -24.55538690	     79.77991993	     90.00000001	      0.00000000	      0.00000000	    -40.37294126	    -62.40611027	    -44.98657068	     34.58464283	     90.00000001	      0.00000000	      0.00000000
      0.39500000	    -25.54580702	     -2.42745002	     -6.98173155	     -0.27100616	      0.87669796	      0.39486441	     37.90596879	      1.38237299	      0.24199673	     42.57250537	      5.85288448	      0.74303039	     24.91938861	      1.39229304	     -0.00000000	     42.07050598	    -14.92110364	     -4.46971475	     78.82208733	      4.70865390	      1.37570495	      9.79471549	    -12.95807834	    -10.00000000	    -10.20620680	      9.59290278	      1.50688531	     -3.67265110	    -12.48181050	    -24.89920216	     80.54932139	     90.00000001	      0.00000000	      0.00000000	    -41.33356128	    -62.03995421	    -45.40837493	     33.95572025	     90.00000001	      0.00000000	      0.00000000
      0.40000000	    -26.07679042	     -2.02434791	     -7.14728777	     -0.26522385	      0.87949937	      0.39404029	     37.26038129	      1.16574022	      0.85748308	     40.91128219	      5.85288448	      0.71403658	     24.54283947	      1.89765553	     -0.00000000	     43.47302653	    -14.25514636	     -4.27780985	     78.06160697	      4.70865390	      1.36243206	      9.39229831	    -14.22634951	    -10.00000000	     -9.82971757	      9.12117753	      1.84390226	     -3.66246620	    -12.89872361	    -24.78463069	     81.53967048	     90.00000001	      0.00000000	      0.00000000	    -42.58480844	    -61.65122796	    -45.86820783	     33.47858639	     90.00000001	      0.00000000	      0.00000000
      0.40500000	    -26.44388789	     -2.71098380	     -6.76824024	     -0.25897326	      0.88327666	      0.39415649	     36.01557250	      1.55549407	     -0.01500161	     38.76220890	      5.85288448	      0.67652817	     23.53913246	      2.27247600	     -0.00000000	     44.99545142	    -15.18379924	     -3.64109753	     77.51533711	      4.70865390	      1.35289785	     11.22521182	    -13.40164284	    -10.00000000	     -9.75373568	      9.73238936	      1.87205173	     -3.44486390	    -12.94003371	    -25.00601568	     82.28139959	     90.00000001	      0.00000000	      0.00000000	    -43.78006795	    -61.22058436	    -46.35219594	     32.95194185	     90.00000001	      0.00000000	      0.00000000
      0.41000000	    -26.82394472	     -2.42054847	     -6.74623641	     -0.25241850	      0.88697410	      0.39256277	     34.95608525	      1.20385180	      0.18165624	     36.75052130	      5.85288448	      0.64141760	     23.51717354	      3.00437754	     -0.00000000	     46.05015537	    -14.53465893	     -3.67857710	     76.20827188	      4.70865390	      1.33008526	     11.05870457	    -13.13643021	    -10.00000000	     -9.53796286	      9.42924277	      1.86873138	     -3.23138989	    -13.31395673	    -24.95236240	     83.03139259	     90.00000001	      0.00000000	      0.00000000	    -44.95617800	    -60.38082208	    -46.89886693	     32.55788802	     90.00000001	      0.00000000	      0.00000000
      0.41500000	    -27.61888203	     -2.17900934	     -6.86733200	     -0.24688000	      0.88990589	      0.39198650	     34.57270641	      1.03897539	      0.34329202	     34.97562159	      5.85288448	      0.61043975	     22.56622892	      3.04643474	     -0.00000000	     47.70799737	    -14.54707151	     -3.94476527	     75.20550812	      4.70865390	      1.31258373	     12.02171690	    -12.41183130	    -10.00000000	     -8.95496776	      8.81741357	      0.92938613	     -1.93426442	    -13.42996910	    -23.61402648	     82.46310871	     90.00000001	      0.00000000	      0.00000000	    -50.81861287	    -58.05878867	    -51.61959500	     34.93453927	     90.00000001	      0.00000000	      0.00000000
      0.42000000	    -27.80664794	     -1.79537308	     -7.16856697	     -0.23997503	      0.89429511	      0.39139396	     33.40185690	      0.64080156	      0.44532571	     32.99218045	      5.85288448	      0.57582218	     21.54013377	      4.05716673	     -0.00000000	     48.32336888	    -14.28333259	     -4.36773893	     73.56287275	      4.70865390	      1.28391434	     12.46457702	    -12.43013330	    -10.00000000	     -8.98717853	      8.25697749	      1.40412059	     -1.75500583	    -13.52347011	    -23.74685075	     83.10839370	     90.00000001	      0.00000000	      0.00000000	    -51.35817191	    -57.34721504	    -51.86249636	     34.33179950	     90.00000001	      0.00000000	      0.00000000
      0.42500000	    -28.45443480	     -1.67690521	     -6.97720950	     -0.23409789	      0.89803068	      0.38969860	     32.83228449	      0.16147387	     -0.26126214	     31.20190332	      5.85288448	      0.54457595	     19.97077627	      4.99104007	     -0.00000000	     49.65972522	    -14.00766275	     -4.44018408	     71.91517678	      4.70865390	      1.25515662	     12.84270140	    -12.19622168	    -10.00000000	     -8.55141389	      8.13908502	      1.54886106	     -1.74398988	    -13.91636791	    -23.90939387	     83.80056490	     90.00000001	      0.00000000	      0.00000000	    -51.95678965	    -56.77032223	    -51.96468147	     33.98516060	     90.00000001	      0.00000000	      0.00000000
      0.43000000	    -29.13630189	     -1.44378304	     -7.02797234	     -0.22750362	      0.90204969	      0.38882783	     31.85703601	     -0.30453040	     -1.27388828	     28.59057409	      5.85288448	      0.49899965	     19.12935586	      6.52312741	     -0.00000000	     50.80181613	    -13.75859039	     -4.71063387	     69.95079034	      4.70865390	      1.22087161	     13.10829122	    -12.23442823	    -10.00000000	     -7.95260724	      7.79343430	      1.60351555	     -1.85290388	    -14.14340162	    -23.63055024	     84.62879594	     90.00000001	      0.00000000	      0.00000000	    -52.80034523	    -55.73692641	    -52.25735541	     33.60815944	     90.00000001	      0.00000000	      0.00000000
      0.43500000	    -29.26572571	     -1.00160339	     -7.31199782	     -0.22018824	      0.90681755	      0.38742930	     30.68835428	     -0.92970774	     -1.54352230	     26.68393520	      5.85288448	      0.46572253	     17.73230099	      8.17485571	     -0.00000000	     51.09615125	    -13.33475347	     -5.36207576	     67.79050388	      4.70865390	      1.18316749	     13.59269309	    -11.66678306	    -10.00000000	     -7.95021079	      7.29787903	      2.01423615	     -1.54023496	    -14.22218342	    -23.60763991	     85.18119801	     90.00000001	      0.00000000	      0.00000000	    -53.50664120	    -54.71402147	    -52.33398167	     33.48417904	     90.00000001	      0.00000000	      0.00000000
      0.44000000	    -29.56436151	     -0.76168494	     -7.48990371	     -0.21308516	      0.91108757	      0.38622034	     29.58782500	     -1.36491567	     -2.26298690	     24.60092865	      5.85288448	      0.42936720	     16.34553457	      9.27205920	     -0.00000000	     51.62042368	    -13.10832805	     -5.73953732	     65.50227481	      4.70865390	      1.14323036	     13.91043166	    -11.22362688	    -10.00000000	     -7.78118915	      6.76318434	      1.87349288	     -0.99071058	    -14.47963653	    -22.93007628	     85.13394266	     90.00000001	      0.00000000	      0.00000000	    -55.82216283	    -52.86599828	    -54.16668811	     34.90508363	     90.00000001	      0.00000000	      0.00000000
      0.44500000	    -29.69544339	     -0.40307844	     -7.79869592	     -0.20552282	      0.91596442	      0.38453676	     28.52181132	     -2.00074375	     -2.99179145	     22.91931796	      5.85288448	      0.40001756	     14.77948000	     11.37104735	     -0.00000000	     51.78747437	    -12.66915135	     -6.23847757	     62.97522583	      4.70865390	      1.09912504	     13.97689290	    -11.24044194	    -10.00000000	     -7.94542826	      6.28512433	      2.23428372	     -0.89587637	    -14.90487120	    -22.77875816	     85.65586005	     90.00000001	      0.00000000	      0.00000000	    -56.18448765	    -51.74358960	    -54.29218313	     34.44831597	     90.00000001	      0.00000000	      0.00000000
      0.45000000	    -30.54088929	     -0.69820167	     -7.74120659	     -0.19954795	      0.91954552	      0.38351786	     28.26248472	     -1.97720162	     -4.46801434	     21.43132445	      5.85288448	      0.37404717	     12.84531386	     12.89292649	     -0.00000000	     53.10479681	    -12.82636456	     -6.06934110	     60.62533745	      4.70865390	      1.05811175	     14.30123582	    -10.20652121	    -10.00000000	     -7.18945380	      6.51662423	      2.43343145	     -0.76756446	    -15.01786141	    -23.10313276	     86.07245224	     90.00000001	      0.00000000	      0.00000000	    -56.73997339	    -50.73061719	    -54.46414272	     34.24660344	     90.00000001	      0.00000000	      0.00000000
      0.45500000	    -30.23404448	     -0.31418876	     -8.07090031	     -0.19067710	      0.92493865	      0.38214288	     26.77691078	     -2.60121308	     -5.14488373	     19.88875816	      5.85288448	      0.34712431	     11.09453609	     14.60018524	     -0.00000000	     52.39483360	    -12.55181901	     -7.10466943	     57.64937529	      4.70865390	      1.00617141	     14.45045379	     -9.52599089	    -10.00000000	     -7.43579081	      6.09082401	      3.02190267	     -0.76156076	    -15.08636831	    -23.21884168	     86.39258114	     90.00000001	      0.00000000	      0.00000000	    -56.67665083	    -49.62942304	    -54.30941038	     34.19127385	     90.00000001	      0.00000000	      0.00000000
      0.46000000	    -30.93961041	     -0.54155605	     -8.05627971	     -0.18475683	      0.92867424	      0.38075728	     26.77751491	     -2.62234468	     -6.44462221	     19.10744598	      5.85288448	      0.33348784	      8.57293777	     15.37997458	     -0.00000000	     53.25489219	    -12.63337482	     -7.25532599	     54.80321143	      4.70865390	      0.95649648	     14.74177641	     -8.74747897	    -10.00000000	     -7.06915998	      6.18308492	      3.19977702	     -0.78527271	    -15.35952253	    -23.36792661	     87.04489776	     90.00000001	      0.00000000	      0.00000000	    -57.19763254	    -48.47542920	    -54.33163996	     33.80068535	     90.00000001	      0.00000000	      0.00000000
